<mxfile host="app.diagrams.net" modified="2021-05-12T16:17:41.939Z" agent="5.0 (Windows NT 10.0; Win64; x64) AppleWebKit/537.36 (KHTML, like Gecko) Chrome/90.0.4430.93 Safari/537.36" etag="qf6Rg1YayIcxHeALBblP" version="14.4.8" type="github">
  <diagram id="Q4WMuzid2WBmGiH2AkfM" name="Page-1">
    <mxGraphModel dx="1422" dy="762" grid="1" gridSize="10" guides="1" tooltips="1" connect="1" arrows="1" fold="1" page="1" pageScale="1" pageWidth="850" pageHeight="1100" math="0" shadow="0">
      <root>
        <mxCell id="0" />
        <mxCell id="1" parent="0" />
        <mxCell id="cH_ZEjv0e8oeWYE2QCB7-6" style="edgeStyle=orthogonalEdgeStyle;rounded=0;orthogonalLoop=1;jettySize=auto;html=1;" edge="1" parent="1" source="cH_ZEjv0e8oeWYE2QCB7-1" target="cH_ZEjv0e8oeWYE2QCB7-2">
          <mxGeometry relative="1" as="geometry" />
        </mxCell>
        <mxCell id="cH_ZEjv0e8oeWYE2QCB7-8" style="edgeStyle=orthogonalEdgeStyle;rounded=0;orthogonalLoop=1;jettySize=auto;html=1;entryX=1;entryY=0.5;entryDx=0;entryDy=0;" edge="1" parent="1" source="cH_ZEjv0e8oeWYE2QCB7-1" target="cH_ZEjv0e8oeWYE2QCB7-3">
          <mxGeometry relative="1" as="geometry" />
        </mxCell>
        <mxCell id="cH_ZEjv0e8oeWYE2QCB7-10" style="edgeStyle=orthogonalEdgeStyle;rounded=0;orthogonalLoop=1;jettySize=auto;html=1;" edge="1" parent="1" source="cH_ZEjv0e8oeWYE2QCB7-1" target="cH_ZEjv0e8oeWYE2QCB7-4">
          <mxGeometry relative="1" as="geometry" />
        </mxCell>
        <mxCell id="cH_ZEjv0e8oeWYE2QCB7-1" value="API&lt;br&gt;(Back-End)" style="whiteSpace=wrap;html=1;aspect=fixed;" vertex="1" parent="1">
          <mxGeometry x="310" y="415" width="140" height="140" as="geometry" />
        </mxCell>
        <mxCell id="cH_ZEjv0e8oeWYE2QCB7-9" style="edgeStyle=orthogonalEdgeStyle;rounded=0;orthogonalLoop=1;jettySize=auto;html=1;" edge="1" parent="1" source="cH_ZEjv0e8oeWYE2QCB7-2" target="cH_ZEjv0e8oeWYE2QCB7-1">
          <mxGeometry relative="1" as="geometry" />
        </mxCell>
        <mxCell id="cH_ZEjv0e8oeWYE2QCB7-2" value="AML&lt;br&gt;(Cross Cutting)" style="whiteSpace=wrap;html=1;aspect=fixed;" vertex="1" parent="1">
          <mxGeometry x="315" y="140" width="130" height="130" as="geometry" />
        </mxCell>
        <mxCell id="cH_ZEjv0e8oeWYE2QCB7-11" style="edgeStyle=orthogonalEdgeStyle;rounded=0;orthogonalLoop=1;jettySize=auto;html=1;" edge="1" parent="1" source="cH_ZEjv0e8oeWYE2QCB7-3" target="cH_ZEjv0e8oeWYE2QCB7-1">
          <mxGeometry relative="1" as="geometry" />
        </mxCell>
        <mxCell id="cH_ZEjv0e8oeWYE2QCB7-3" value="DataLake&lt;br&gt;(Persistence Layer)" style="whiteSpace=wrap;html=1;aspect=fixed;" vertex="1" parent="1">
          <mxGeometry x="40" y="410" width="150" height="150" as="geometry" />
        </mxCell>
        <mxCell id="cH_ZEjv0e8oeWYE2QCB7-5" style="edgeStyle=orthogonalEdgeStyle;rounded=0;orthogonalLoop=1;jettySize=auto;html=1;entryX=1;entryY=0.5;entryDx=0;entryDy=0;" edge="1" parent="1" source="cH_ZEjv0e8oeWYE2QCB7-4" target="cH_ZEjv0e8oeWYE2QCB7-1">
          <mxGeometry relative="1" as="geometry" />
        </mxCell>
        <mxCell id="cH_ZEjv0e8oeWYE2QCB7-4" value="SAP&lt;br&gt;(Front-End)" style="whiteSpace=wrap;html=1;aspect=fixed;" vertex="1" parent="1">
          <mxGeometry x="560" y="420" width="130" height="130" as="geometry" />
        </mxCell>
      </root>
    </mxGraphModel>
  </diagram>
</mxfile>
